<?xml version="1.0" standalone="no"?><svg xmlns="http://www.w3.org/2000/svg" viewBox="0 0 1440 320"><path fill="#203a43" fill-opacity="1" d="M0,160L30,160C60,160,120,160,180,144C240,128,300,96,360,117.3C420,139,480,213,540,224C600,235,660,181,720,170.7C780,160,840,192,900,192C960,192,1020,160,1080,165.3C1140,171,1200,213,1260,213.3C1320,213,1380,171,1410,149.3L1440,128L1440,320L1410,320C1380,320,1320,320,1260,320C1200,320,1140,320,1080,320C1020,320,960,320,900,320C840,320,780,320,720,320C660,320,600,320,540,320C480,320,420,320,360,320C300,320,240,320,180,320C120,320,60,320,30,320L0,320Z"></path></svg>